<svg version="1.1" id="Layer_1" xmlns="http://www.w3.org/2000/svg" xmlns:xlink="http://www.w3.org/1999/xlink" x="0px" y="0px"
	 width="100%" viewBox="0 0 797 208" enable-background="new 0 0 797 208" xml:space="preserve">
<path fill="#FFFFFF" opacity="1.000000" stroke="none" 
	d="
M632.000000,209.000000 
	C421.333344,209.000000 211.166718,209.000000 1.000057,209.000000 
	C1.000038,139.666702 1.000038,70.333397 1.000019,1.000075 
	C266.666595,1.000050 532.333191,1.000050 797.999878,1.000025 
	C797.999878,70.333260 797.999878,139.666519 797.999939,208.999893 
	C742.833313,209.000000 687.666687,209.000000 632.000000,209.000000 
M780.996460,169.959290 
	C780.980469,164.349274 780.964478,158.739243 780.975647,152.252991 
	C780.966675,150.792191 780.957703,149.331375 780.996399,146.950562 
	C780.996399,103.033745 780.996399,59.116936 780.996399,15.000000 
	C778.599854,15.000000 776.785278,15.000000 774.970703,15.000000 
	C584.849304,15.000000 394.727966,14.997891 204.606583,15.002322 
	C176.780304,15.002971 148.954025,15.034752 120.174797,15.023456 
	C108.409264,15.031729 96.643738,15.040002 83.957268,15.003386 
	C61.720066,15.003386 39.482861,15.003386 17.051535,15.003386 
	C17.051535,37.652351 17.051535,59.761971 17.022898,82.824600 
	C17.030548,94.922905 17.038197,107.021210 17.003216,120.040985 
	C17.003216,143.292725 17.003216,166.544449 17.003216,189.953613 
	C120.350990,189.953613 223.117279,189.953613 326.757599,189.981583 
	C328.214844,189.970779 329.672058,189.959991 332.049316,189.996445 
	C452.656952,189.980255 573.264587,189.964081 694.742615,189.975464 
	C696.193787,189.971237 697.644897,189.966995 700.020813,189.997375 
	C726.918274,189.997375 753.815796,189.997375 780.947754,189.997375 
	C780.947754,185.384491 780.947754,181.256424 780.975098,176.235901 
	C780.967102,174.450104 780.959045,172.664307 780.996460,169.959290 
z"/>
<path fill="#000000" opacity="1.000000" stroke="none" 
	d="
M693.872192,189.947891 
	C573.264587,189.964081 452.656952,189.980255 331.696350,189.590881 
	C338.156006,188.794632 342.622955,186.018936 342.916290,181.168625 
	C343.522675,171.142807 343.737915,161.090530 343.957306,151.045715 
	C344.029175,147.756485 341.993591,145.911362 338.765076,146.055862 
	C335.613312,146.196930 334.914185,148.487473 334.974670,151.288467 
	C335.071533,155.775284 335.214142,160.279587 334.924713,164.749786 
	C334.731750,167.729431 333.695343,170.883255 329.976624,170.906754 
	C326.237579,170.930389 324.638031,168.764343 324.926636,164.801636 
	C325.263855,160.171341 324.771027,155.482437 325.070953,150.846970 
	C325.293732,147.404022 322.992554,146.259689 320.698700,146.172302 
	C318.051300,146.071472 315.812073,147.382309 315.941498,150.962662 
	C316.157593,156.940079 315.926910,162.932159 316.021973,168.915878 
	C316.110229,174.473679 320.552612,178.900986 326.126312,178.962845 
	C328.719055,178.991623 331.316193,178.628387 334.650940,178.389954 
	C330.896301,182.118362 327.168854,181.896103 323.329956,180.688187 
	C320.205841,179.705215 317.653625,181.006836 317.233765,183.748428 
	C316.822571,186.433105 318.331543,189.028763 321.989258,189.049072 
	C323.289001,189.056305 324.585571,189.635513 325.883575,189.953613 
	C223.117279,189.953613 120.350990,189.953613 17.003216,189.953613 
	C17.003216,166.544449 17.003216,143.292725 17.404488,119.682480 
	C18.336056,121.849686 18.561434,124.488022 19.445997,126.882889 
	C25.301758,142.736801 33.636745,156.751678 47.049095,167.728821 
	C67.676323,184.610886 91.230812,190.649338 117.010368,186.744904 
	C136.146713,183.846634 152.639175,174.770386 166.161758,160.444794 
	C181.446609,144.252258 189.067703,124.942444 189.861404,103.041672 
	C190.383209,88.643372 186.945175,74.897583 180.483047,61.817959 
	C173.307373,47.294018 163.295670,35.303394 149.365265,27.308306 
	C140.521225,22.232435 130.578033,19.071701 121.127747,15.052128 
	C148.954025,15.034752 176.780304,15.002971 204.606583,15.002322 
	C394.727966,14.997891 584.849304,15.000000 774.970703,15.000000 
	C776.785278,15.000000 778.599854,15.000000 780.996399,15.000000 
	C780.996399,59.116936 780.996399,103.033745 780.589844,147.325256 
	C778.914062,147.133301 777.659668,146.120270 776.373047,146.077515 
	C770.884216,145.895142 765.385132,146.055359 759.891357,145.976898 
	C756.922546,145.934494 755.173279,147.104034 755.006042,150.183395 
	C754.819702,153.614944 756.748169,154.949997 759.896484,154.990204 
	C762.114929,155.018555 764.334045,154.995697 767.369934,154.995697 
	C763.294800,160.448303 759.591553,165.083710 756.301941,169.996048 
	C755.292419,171.503632 755.169983,173.765793 755.141663,175.689758 
	C755.130554,176.442062 756.505127,177.885788 757.231445,177.874924 
	C765.138794,177.756424 773.042847,177.411545 780.947754,177.128326 
	C780.947754,181.256424 780.947754,185.384491 780.947754,189.997375 
	C753.815796,189.997375 726.918274,189.997375 699.651428,189.604980 
	C701.712952,188.442825 704.442444,188.127045 706.492859,186.778702 
	C708.648010,185.361481 711.798584,183.192429 709.354248,180.040039 
	C707.213379,177.279114 703.774780,177.068390 701.108093,179.545975 
	C697.165100,183.209381 694.265259,180.637970 690.879089,178.556564 
	C704.593811,172.896439 707.200012,163.611313 705.789307,153.647400 
	C704.466248,144.301956 699.363892,137.245712 688.292175,136.116699 
	C678.750305,135.143692 671.595703,138.081451 666.936462,148.308090 
	C662.234253,158.628983 665.359741,167.838501 676.928528,177.770706 
	C673.946838,179.122223 671.662842,181.195709 673.329224,184.562531 
	C675.010315,187.959137 678.012695,187.455109 680.992310,186.044846 
	C681.692383,185.713516 682.732483,185.626923 683.450073,185.886642 
	C686.955017,187.155121 690.403625,188.578979 693.872192,189.947891 
M363.987854,67.295433 
	C367.795593,61.222565 366.875366,54.431164 367.018555,47.779091 
	C367.268524,36.167633 361.538239,28.051611 351.657043,23.053963 
	C341.644318,17.989765 331.195190,18.390303 321.523499,24.109280 
	C306.337463,33.088963 304.511078,51.867470 310.512878,65.602325 
	C316.705261,79.773239 330.128632,83.542740 343.927917,81.662987 
	C345.672760,81.425301 348.035980,81.977890 349.349945,83.076584 
	C352.456085,85.673859 354.995758,88.934814 357.963928,91.714493 
	C361.219727,94.763550 366.555267,94.860252 370.277008,91.918808 
	C368.079468,89.331604 365.932159,86.716537 363.688934,84.186539 
	C361.343903,81.541771 358.906586,78.978836 356.701111,76.587715 
	C359.269318,73.366508 361.424316,70.663567 363.987854,67.295433 
M237.540161,54.999336 
	C242.303741,54.999336 247.067337,54.999336 251.711990,54.999336 
	C251.711990,51.659351 251.711990,48.919437 251.711990,46.489258 
	C244.084457,46.489258 236.748322,46.489258 229.362106,46.489258 
	C229.362106,40.802814 229.362106,34.933861 229.362106,28.682774 
	C239.131836,28.682774 248.541046,28.682774 257.838623,28.682774 
	C257.838623,25.663118 257.838623,23.039917 257.838623,20.317123 
	C245.149475,20.317123 232.629181,20.317123 220.320129,20.317123 
	C220.320129,40.718109 220.320129,60.780945 220.320129,80.692261 
	C233.049469,80.692261 245.456940,80.692261 257.695190,80.692261 
	C257.695190,77.969543 257.695190,75.561653 257.695190,72.782051 
	C247.988052,72.782051 238.581284,72.782051 228.999878,72.782051 
	C228.999878,69.578133 228.999908,66.763840 228.999908,63.949539 
	C228.999908,61.019672 228.999878,58.089806 228.999878,54.999397 
	C231.928818,54.999397 234.243301,54.999397 237.540161,54.999336 
M285.802185,45.973160 
	C283.605560,44.973049 281.180634,44.284454 279.274811,42.887611 
	C277.259064,41.410229 274.796173,39.510071 274.217224,37.343369 
	C273.312500,33.957546 275.597687,31.590986 278.694550,29.580645 
	C284.590454,25.753296 288.873444,29.835800 293.386688,32.057751 
	C296.013245,33.350826 297.421600,33.420403 298.761353,30.785969 
	C299.470032,29.392502 300.405975,28.114601 301.207916,26.834610 
	C293.610382,20.671976 287.202820,18.779371 278.628510,20.001503 
	C270.675903,21.135017 265.534149,28.418798 264.847260,37.381126 
	C264.186676,46.000305 269.082336,50.284454 275.421844,52.209454 
	C279.498657,53.447384 283.308563,55.537270 287.326813,57.002003 
	C292.079254,58.734371 293.042572,62.553513 291.832642,66.520653 
	C290.650513,70.396606 287.462982,72.740799 283.017822,73.044800 
	C278.014832,73.386963 273.923981,71.655212 270.048950,68.649612 
	C267.842346,66.938087 265.664154,65.652351 263.490570,69.656746 
	C261.692017,72.970230 261.013641,74.769707 264.944092,76.496704 
	C268.417694,78.022987 271.562317,80.548477 275.152649,81.505051 
	C282.012787,83.332817 289.319824,82.607346 294.763580,78.291656 
	C301.663208,72.821770 303.711212,64.786263 300.938507,56.154709 
	C298.750793,49.344311 292.329193,48.061775 285.802185,45.973160 
M510.998688,155.500412 
	C510.998718,149.853149 510.875305,144.202179 511.044250,138.559967 
	C511.148621,135.073303 509.111969,134.943130 506.547455,134.969635 
	C504.068878,134.995255 501.780823,134.895248 501.970795,138.459305 
	C502.119568,141.250488 502.000641,144.055969 502.000641,147.194946 
	C500.636475,146.843079 499.722717,146.589569 498.800385,146.372421 
	C493.496643,145.123749 488.308533,145.165894 484.251434,149.321503 
	C477.568359,156.166840 477.889496,165.810196 482.163391,173.367325 
	C484.524414,177.542099 493.869354,180.963196 497.943695,178.747543 
	C500.930786,177.123138 503.203857,177.347672 506.083191,177.934143 
	C509.457977,178.621521 511.325623,177.489822 511.083435,173.436737 
	C510.747131,167.809555 510.998352,162.147263 510.998688,155.500412 
M365.000183,146.810394 
	C364.334473,155.990097 365.919495,158.357254 375.471100,160.970612 
	C377.327820,161.478607 379.440521,161.307251 381.130280,162.099442 
	C382.931427,162.943863 384.370941,164.559647 385.968323,165.838654 
	C384.937286,167.088882 384.094849,168.585266 382.841583,169.545364 
	C378.205017,173.097275 374.526184,169.339630 371.044220,167.293503 
	C368.359833,165.716125 365.993500,165.226837 364.895050,167.909760 
	C364.107483,169.833374 364.475677,173.390930 365.818115,174.818100 
	C370.728638,180.038651 384.592926,180.434189 390.378662,176.081055 
	C397.943420,170.389404 396.767212,159.184952 388.118378,155.649719 
	C385.193939,154.454330 381.881439,154.177338 379.012451,152.888260 
	C377.104370,152.030914 374.806580,150.410690 374.210571,148.622787 
	C373.159332,145.469070 376.239594,145.141663 378.408813,144.956070 
	C379.959167,144.823441 381.621216,145.212738 383.138977,145.677536 
	C385.117157,146.283340 386.973022,147.704895 388.935852,147.816055 
	C390.574310,147.908829 393.412415,146.938370 393.715332,145.870422 
	C394.193176,144.185654 393.637360,141.260040 392.385040,140.202209 
	C387.842438,136.365051 382.222656,135.263290 376.385864,136.063843 
	C370.291443,136.899765 365.934418,140.859863 365.000183,146.810394 
M221.001022,157.500519 
	C221.000702,162.986542 221.114426,168.475906 220.954819,173.957291 
	C220.867203,176.966766 221.939972,178.124573 224.998871,178.047684 
	C231.312103,177.889008 237.632126,178.008041 243.949341,177.996246 
	C246.394058,177.991669 249.146912,178.603561 249.040359,174.559372 
	C248.939484,170.731064 246.762024,169.903854 243.503128,169.975861 
	C239.072266,170.073746 234.637634,170.000275 230.271393,170.000275 
	C230.271393,167.046860 230.271393,164.644180 230.271393,162.275970 
	C244.221268,161.253235 244.221268,161.253235 246.941711,158.312759 
	C246.518158,156.972153 246.288727,154.577545 245.640259,154.458115 
	C240.563065,153.522980 235.405502,153.024261 230.254944,152.388718 
	C230.254944,150.079727 230.254944,147.679245 230.254944,145.000107 
	C234.966629,145.000107 239.427124,145.027054 243.887070,144.989288 
	C246.298264,144.968872 249.148209,145.645676 249.029266,141.583176 
	C248.929947,138.190353 247.220261,136.936920 244.000977,136.977951 
	C238.017197,137.054214 232.030853,137.062653 226.047348,136.976776 
	C222.506973,136.925964 220.910751,138.490952 220.977341,142.039078 
	C221.067764,146.858429 221.000580,151.680725 221.001022,157.500519 
M282.998474,169.397827 
	C282.998962,163.082016 282.746704,156.752472 283.088837,150.455231 
	C283.316833,146.259140 280.645233,144.664459 278.106476,146.231461 
	C274.176483,148.657227 271.201111,146.054886 267.820465,145.957291 
	C267.148010,145.937866 266.472443,145.661346 265.810364,145.701630 
	C257.552399,146.204025 253.491852,150.744278 251.512497,158.723984 
	C249.038284,168.698593 255.831543,179.036896 265.967255,178.920914 
	C268.926453,178.887039 271.876740,177.443192 274.827881,177.454987 
	C282.998505,177.487610 282.997833,177.656296 282.998474,169.397827 
M431.275787,178.789215 
	C432.432281,178.859467 433.595703,179.047119 434.744110,178.979568 
	C439.615479,178.693054 444.513855,178.542755 449.326385,177.829971 
	C450.377594,177.674271 451.833466,175.436813 451.880127,174.114944 
	C452.132263,166.972549 452.000122,159.816589 451.999512,152.665298 
	C451.998871,145.341156 452.009766,145.400177 444.396454,146.867233 
	C443.222015,147.093536 441.868439,146.571198 440.631195,146.261414 
	C432.793640,144.299042 424.694000,147.613358 422.026611,153.911301 
	C418.034180,163.337875 421.735016,173.656418 431.275787,178.789215 
M710.000488,149.854492 
	C710.000549,156.004135 709.899841,162.155945 710.031494,168.302780 
	C710.143188,173.516266 715.385193,178.468887 721.062927,179.003052 
	C728.700073,179.721558 736.054810,176.484741 736.771362,171.252991 
	C737.703186,164.449585 737.867493,157.508804 737.869202,150.627014 
	C737.869873,148.066513 736.598450,145.458191 732.926270,145.980209 
	C729.819275,146.421875 728.908936,148.275436 728.974121,151.153656 
	C729.075745,155.638931 729.146301,160.134567 728.950806,164.613632 
	C728.812439,167.784348 727.797913,170.309021 723.673584,170.060547 
	C719.970703,169.837448 718.889282,167.941025 718.970886,164.588150 
	C719.088196,159.771027 719.277344,154.926025 718.859314,150.143280 
	C718.731628,148.681885 716.909607,146.550659 715.506287,146.213531 
	C713.485291,145.728088 710.183838,144.787491 710.000488,149.854492 
M305.259827,156.349319 
	C308.067230,157.620712 310.837555,157.586761 311.266907,154.057373 
	C311.497314,152.163361 310.375641,149.129593 308.881989,148.216293 
	C306.256531,146.610977 302.927856,145.829147 299.802063,145.441788 
	C294.509766,144.785934 289.046295,148.543793 287.984161,152.844971 
	C286.007202,160.850632 291.552979,164.529236 297.332520,166.057770 
	C299.791565,166.708099 302.057373,168.088989 304.411011,169.137863 
	C304.329193,169.652573 304.247406,170.167282 304.165619,170.681992 
	C303.073517,171.121002 301.771698,172.174744 300.927612,171.886734 
	C298.101471,170.922546 295.534851,169.129181 292.678894,168.345856 
	C290.876556,167.851532 288.735413,168.592422 286.746277,168.779236 
	C287.001434,170.828979 286.509521,173.777603 287.667999,174.740524 
	C290.045807,176.716858 293.205688,178.444244 296.225586,178.822952 
	C304.412689,179.849625 313.028900,177.514343 312.092194,167.665512 
	C311.532990,161.785980 307.226471,160.697418 303.043152,158.980972 
	C300.524872,157.947708 298.130859,156.611618 295.681000,155.411621 
	C296.011047,154.684341 296.341125,153.957047 296.671173,153.229752 
	C299.289948,154.148941 301.908752,155.068130 305.259827,156.349319 
M529.000244,155.534500 
	C528.271118,159.486877 530.220459,162.093033 533.484680,163.761002 
	C535.452942,164.766724 537.747437,165.120270 539.759399,166.058395 
	C541.782715,167.001801 543.637634,168.306427 545.566284,169.452774 
	C545.177002,170.268234 544.787659,171.083694 544.398376,171.899155 
	C541.205566,170.724289 538.078857,169.280579 534.795776,168.472366 
	C532.728577,167.963470 530.427124,168.406311 528.230713,168.422211 
	C528.721924,170.683685 528.500610,174.201157 529.842773,174.962448 
	C533.349915,176.951828 537.468323,178.406982 541.476501,178.839905 
	C547.208740,179.459045 552.533875,175.813843 552.998657,172.052246 
	C554.065674,163.415894 552.417847,161.243317 544.121338,158.875046 
	C541.521484,158.132919 537.546448,157.975342 538.270142,152.219849 
	C540.736206,153.239212 542.799011,154.476868 545.018005,154.904800 
	C547.409241,155.365906 550.985962,156.097519 552.193481,154.877731 
	C554.382690,152.666214 553.270813,149.634003 550.068420,148.378464 
	C547.076843,147.205612 544.006836,145.932648 540.863098,145.511658 
	C534.636414,144.677826 529.370605,148.990479 529.000244,155.534500 
M623.333435,174.881989 
	C628.357300,178.876938 633.811218,180.285446 640.081360,178.069138 
	C643.662598,176.803284 646.510986,174.746429 646.896606,170.930161 
	C647.331665,166.624893 647.312744,162.206711 641.879395,160.319824 
	C638.087769,159.003067 634.469421,157.187393 630.349792,155.411865 
	C633.498657,151.771515 635.732666,153.050156 638.574524,154.623856 
	C640.375549,155.621246 643.970642,156.030273 645.137329,154.949814 
	C647.320801,152.927597 645.925720,150.322784 643.785034,148.223587 
	C639.871887,144.386230 635.174927,145.955139 630.733032,146.050385 
	C626.545654,146.140182 622.671814,150.076950 622.004456,154.441910 
	C621.455566,158.031982 624.589172,162.573990 628.461060,164.015442 
	C632.100037,165.370209 635.685913,166.867661 640.058533,168.605774 
	C632.764465,175.010666 628.090576,164.082275 621.694092,167.770889 
	C622.052612,169.851425 622.430969,172.046722 623.333435,174.881989 
M609.484436,153.996933 
	C610.880615,154.335342 612.436462,154.390594 613.640381,155.069794 
	C616.334106,156.589447 618.947510,156.205109 619.576111,153.447647 
	C619.998047,151.596832 618.712708,148.655792 617.214600,147.225220 
	C614.687439,144.812073 601.284363,145.400620 598.802429,147.772858 
	C591.613037,154.644379 589.658508,163.838745 595.440125,172.804199 
	C599.853333,179.647736 609.942810,181.394669 618.209900,176.426834 
	C621.162415,174.652634 620.820007,172.556671 619.615112,170.211502 
	C617.843140,166.762756 615.334961,168.790314 613.018433,169.517929 
	C607.438782,171.270477 602.440857,169.071320 601.108765,164.301041 
	C599.786377,159.565460 603.038391,155.124847 609.484436,153.996933 
M574.766174,170.975143 
	C573.195251,170.694839 571.624329,170.414536 569.483948,170.032623 
	C569.483948,165.436844 569.483948,160.423828 569.483948,157.111343 
	C572.525818,154.490677 576.428101,152.755234 576.681580,150.592224 
	C577.329651,145.061661 571.797485,147.917969 569.334534,146.725449 
	C568.209839,144.219070 570.843445,140.155228 565.574097,139.923080 
	C560.331665,139.692093 559.777222,142.985550 559.018982,146.519775 
	C557.241943,147.514725 555.067078,149.133224 555.244507,150.429672 
	C555.522827,152.462463 557.389465,154.277832 558.583374,156.185272 
	C560.023132,161.779755 560.229919,168.008118 561.142944,174.131180 
	C561.626343,177.373108 568.370300,179.438309 572.902893,177.933472 
	C576.223083,176.831146 576.607910,174.145859 574.766174,170.975143 
M415.650360,177.046356 
	C419.684875,177.156769 418.075470,173.910294 417.763885,172.478317 
	C417.534149,171.422501 415.201263,170.850174 413.840576,170.005890 
	C412.864380,169.400208 411.171692,168.747437 411.129150,168.036072 
	C410.873291,163.759644 411.002075,159.460220 411.002075,155.168488 
	C411.466370,155.535461 411.930695,155.902435 412.394989,156.269424 
	C414.263153,154.650574 417.281525,153.325714 417.784424,151.357941 
	C419.312927,145.377167 413.619965,147.762497 410.889130,146.512985 
	C411.377380,142.947159 411.018921,139.991058 406.464325,139.990799 
	C401.814209,139.990524 401.979736,143.388474 401.311157,146.230606 
	C399.547485,147.458755 397.682129,148.845322 397.122070,150.639328 
	C395.916199,154.502228 398.827423,155.265991 401.999481,155.136810 
	C401.999481,159.922989 401.627167,164.276260 402.083344,168.540909 
	C402.841370,175.627518 403.186768,178.088974 411.528748,177.982986 
	C412.665497,177.968552 413.799286,177.722473 415.650360,177.046356 
M461.002014,142.759003 
	C461.002014,144.051697 461.002014,145.344391 461.002014,145.337494 
	C458.426331,147.212128 455.082153,149.082291 455.279419,149.598114 
	C456.234558,152.095703 458.140808,154.229538 459.709991,156.492294 
	C460.140076,156.252792 460.570190,156.013275 461.000305,155.773758 
	C461.000305,160.421921 460.986603,165.070129 461.003418,169.718231 
	C461.030121,177.094376 467.611359,180.887817 474.220642,177.096634 
	C475.535065,176.342651 476.783569,174.099533 476.651123,172.674271 
	C476.560883,171.703415 473.964050,171.033951 472.579651,170.094772 
	C471.323425,169.242523 469.274200,168.300110 469.167084,167.237000 
	C468.761749,163.214279 469.004059,159.126312 469.004059,155.056824 
	C472.871918,154.897415 476.793091,155.805542 476.977417,150.736801 
	C477.208252,144.389084 471.742065,148.313339 469.365723,146.597855 
	C468.570160,139.031067 467.024231,138.152008 461.002014,142.759003 
M582.111328,177.631195 
	C584.885681,177.631790 588.896606,180.037659 588.967834,174.487747 
	C589.084717,165.382660 588.999451,156.274979 588.999451,147.313522 
	C585.284363,146.284012 580.712524,144.422928 580.221802,149.694992 
	C579.441101,158.081711 580.012695,166.597656 580.124084,175.057480 
	C580.132751,175.709717 581.022522,176.350342 582.111328,177.631195 
M515.998352,172.175903 
	C516.401489,174.038437 516.804688,175.900986 517.192139,177.691116 
	C525.000000,178.308243 525.000183,178.308243 525.000061,171.040329 
	C525.000000,164.721924 524.957214,158.403122 525.017761,152.085312 
	C525.046326,149.099777 524.944031,146.067154 521.020386,146.077698 
	C517.174927,146.088013 515.926636,148.695435 515.976318,152.276749 
	C516.064026,158.593918 515.999207,164.913193 515.998352,172.175903 
M749.085388,177.969711 
	C750.063232,176.097244 751.868835,174.226593 751.872925,172.351990 
	C751.889038,164.968781 751.225037,157.586945 751.056946,150.199036 
	C750.992859,147.383636 750.384216,145.943100 747.180969,145.917908 
	C743.871399,145.891907 742.870789,147.147751 742.945374,150.337189 
	C743.119995,157.801117 743.225220,165.281265 742.913269,172.736237 
	C742.739624,176.887238 743.998169,178.697571 749.085388,177.969711 
M585.407715,144.000580 
	C590.236084,144.282104 589.379639,140.500092 588.762146,138.217331 
	C588.383606,136.817719 585.738770,135.345490 583.977539,135.156784 
	C580.882568,134.825134 580.097900,137.197067 579.939636,140.023239 
	C579.739624,143.592499 581.638428,144.251190 585.407715,144.000580 
M516.531738,142.985992 
	C517.564941,143.324799 518.601257,143.954147 519.630615,143.942947 
	C521.888489,143.918335 524.848083,145.011642 525.040955,140.920654 
	C525.192627,137.701721 524.437866,135.424728 520.812683,135.002289 
	C517.157654,134.576370 516.626343,137.259521 516.030579,139.804733 
	C515.848877,140.581299 516.039917,141.445145 516.531738,142.985992 
M750.999023,139.505478 
	C751.122925,137.031586 751.076660,134.833328 747.553406,134.960175 
	C744.343445,135.075729 742.073853,136.552536 742.201660,139.643173 
	C742.263550,141.139420 744.212158,143.368408 745.728210,143.806671 
	C748.096130,144.491150 751.345154,144.704681 750.999023,139.505478 
z"/>
<path fill="#F8F6F0" opacity="1.000000" stroke="none" 
	d="
M120.651276,15.037791 
	C130.578033,19.071701 140.521225,22.232435 149.365265,27.308306 
	C163.295670,35.303394 173.307373,47.294018 180.483047,61.817959 
	C186.945175,74.897583 190.383209,88.643372 189.861404,103.041672 
	C189.067703,124.942444 181.446609,144.252258 166.161758,160.444794 
	C152.639175,174.770386 136.146713,183.846634 117.010368,186.744904 
	C91.230812,190.649338 67.676323,184.610886 47.049095,167.728821 
	C33.636745,156.751678 25.301758,142.736801 19.445997,126.882889 
	C18.561434,124.488022 18.336056,121.849686 17.425804,119.221741 
	C17.038197,107.021210 17.030548,94.922905 17.414494,82.247032 
	C17.870726,81.010468 17.857473,80.332680 18.011314,79.695213 
	C22.636271,60.530659 33.229549,45.010040 48.149750,32.595402 
	C53.723061,27.958021 60.574207,24.689754 67.190056,21.522861 
	C72.827461,18.824333 78.963020,17.166500 84.878204,15.048276 
	C96.643738,15.040002 108.409264,15.031729 120.651276,15.037791 
M127.857735,175.004822 
	C140.161514,171.245377 150.604736,164.631790 159.994064,154.293472 
	C152.313766,151.763107 145.470413,149.508469 139.865051,147.661713 
	C134.906479,157.390228 130.568100,165.901962 125.785500,174.796448 
	C125.651581,175.132141 125.517662,175.467850 125.383743,175.803543 
	C125.946960,175.562057 126.510178,175.320572 127.857735,175.004822 
M79.124222,175.639755 
	C79.662468,175.678375 80.200722,175.716980 80.738968,175.755600 
	C80.422127,175.315918 80.105286,174.876251 79.329185,173.892792 
	C74.706436,165.068268 70.083694,156.243759 65.182800,146.888260 
	C58.989159,148.963593 51.968590,151.316025 44.353214,153.867752 
	C47.598717,156.694031 50.005001,158.877518 52.503906,160.949295 
	C60.347988,167.452591 68.877945,172.695175 79.124222,175.639755 
M125.877037,25.357592 
	C125.338097,25.318974 124.799156,25.280355 124.260216,25.241735 
	C124.576859,25.681961 124.893509,26.122185 125.659485,27.105881 
	C130.682861,36.524803 135.706223,45.943726 141.075516,56.011242 
	C147.176163,53.993366 154.530838,51.560699 162.756805,48.839844 
	C158.286194,44.900806 154.990143,40.973423 150.821426,38.542625 
	C142.833786,33.885010 134.350372,30.077625 125.877037,25.357592 
M143.043915,125.740173 
	C142.458328,130.348572 141.872742,134.956955 141.352066,139.054550 
	C149.505737,141.937027 157.571121,144.788284 165.853088,147.716095 
	C174.830887,135.113495 180.578949,121.212540 181.086853,105.244476 
	C168.723358,105.244476 157.009323,105.244476 145.448425,105.244476 
	C144.794418,111.993126 144.165558,118.482216 143.043915,125.740173 
M176.369492,97.000778 
	C177.814423,97.000778 179.259354,97.000778 181.381271,97.000778 
	C180.879013,92.622917 180.860046,88.678604 179.916534,84.969467 
	C177.468292,75.345001 174.705765,65.770050 168.271332,57.852531 
	C167.617676,57.048210 165.964279,56.245377 165.133896,56.521545 
	C157.148987,59.177143 149.241211,62.064644 141.941269,64.661644 
	C143.167770,75.274147 144.409393,86.017426 145.678757,97.000778 
	C155.508545,97.000778 165.450668,97.000778 176.369492,97.000778 
M63.546337,138.898590 
	C63.030945,134.456299 62.397594,130.023743 62.030033,125.569252 
	C61.571320,120.009979 61.457550,114.420135 60.906319,108.872147 
	C60.772770,107.528000 59.507946,106.296249 58.763321,105.012810 
	C57.854198,105.577927 56.568901,105.924873 56.094810,106.742302 
	C51.884640,114.001495 41.351860,113.878990 36.780369,107.305641 
	C36.080677,106.299553 34.766872,105.213959 33.645569,105.104729 
	C30.553598,104.803543 27.413095,105.000610 23.740347,105.000610 
	C24.206310,108.338776 24.511812,111.197250 25.015800,114.020294 
	C27.039637,125.356667 31.148859,135.867523 37.891735,145.240082 
	C38.443073,146.006439 40.363903,146.438736 41.366272,146.124985 
	C48.519226,143.885971 55.598869,141.412796 63.546337,138.898590 
M42.410328,55.040596 
	C40.671246,54.488777 39.000046,53.096035 37.865608,56.209969 
	C37.006226,58.568901 35.063011,60.510910 33.785023,62.743172 
	C27.784636,73.224014 24.873793,84.583801 23.867439,96.799492 
	C28.106558,96.799492 31.882740,96.799492 34.336342,96.799492 
	C37.223186,94.136543 39.081207,91.521912 41.612629,90.280937 
	C46.416615,87.925896 52.177818,88.485199 56.473289,94.912979 
	C57.020504,95.731834 57.937641,96.303482 58.683407,96.989655 
	C59.154629,96.130188 59.793793,95.319229 60.059219,94.400322 
	C60.499416,92.876343 60.809677,91.294724 60.978184,89.716408 
	C61.376343,85.987000 61.596119,82.238403 62.003506,78.510178 
	C62.559910,73.418266 63.223549,68.338066 63.765224,63.878487 
	C56.596401,60.994377 49.805222,58.262196 42.410328,55.040596 
M69.447433,118.938362 
	C70.410881,124.952835 71.374329,130.967300 72.366760,137.162689 
	C81.464287,136.296234 90.185646,135.465622 98.663544,134.658173 
	C98.663544,124.572647 98.663544,114.843735 98.663544,105.327087 
	C88.591850,105.327087 78.859528,105.327087 69.033623,105.327087 
	C69.033623,109.804260 69.033623,113.954300 69.447433,118.938362 
M86.490303,97.001152 
	C90.611931,97.001152 94.733551,97.001152 100.726074,97.001152 
	C98.709969,93.774323 97.736191,91.423592 96.089180,89.726044 
	C90.840698,84.316544 91.278160,77.307831 96.774712,72.957367 
	C98.004959,71.983635 98.637299,70.254494 99.918655,68.304298 
	C89.913986,67.182281 81.116737,66.195671 71.834663,65.154686 
	C70.657570,75.816170 69.506920,86.238197 68.318626,97.001114 
	C74.891556,97.001114 80.192436,97.001114 86.490303,97.001152 
M136.928833,105.661209 
	C127.087021,105.661209 117.245209,105.661209 107.199409,105.661209 
	C107.199409,114.097839 107.199409,122.795799 107.199409,131.529037 
	C113.252129,128.028061 120.388466,127.648056 122.809128,131.564880 
	C125.236160,135.492035 127.711090,138.135071 133.412094,136.938599 
	C134.533951,127.438194 135.764053,117.021042 136.928833,105.661209 
M136.000732,84.428108 
	C135.334442,79.610458 134.318283,74.807281 134.118057,69.970337 
	C133.971054,66.419594 132.386826,65.688690 129.447449,66.001389 
	C122.007698,66.792862 114.568687,67.591225 105.924438,68.515694 
	C107.354515,70.407181 108.168266,71.999313 109.429581,73.058434 
	C113.835106,76.757751 114.698418,86.324669 110.114998,89.098808 
	C106.484909,91.295937 106.921745,93.720642 107.177963,96.747276 
	C117.260536,96.747276 126.999939,96.747276 137.379944,96.747276 
	C136.894180,92.732964 136.447617,89.042458 136.000732,84.428108 
M99.000336,50.432049 
	C99.000336,41.356392 99.000336,32.280735 99.000336,22.156462 
	C84.374596,29.772661 79.593445,42.994141 74.344032,57.182850 
	C82.902962,58.040882 90.826508,58.835217 99.000343,59.654640 
	C99.000343,56.692848 99.000343,54.050056 99.000336,50.432049 
M106.999825,42.499260 
	C106.999825,48.273655 106.999825,54.048046 106.999825,60.015804 
	C115.267754,59.277252 123.030090,58.583862 130.825668,57.887505 
	C126.757675,40.942623 116.297058,24.687742 106.999825,23.174875 
	C106.999825,29.324188 106.999825,35.412220 106.999825,42.499260 
M91.602844,175.067474 
	C93.972664,176.325546 96.342491,177.583603 98.759735,178.866837 
	C98.759735,166.720627 98.759735,154.975449 98.759735,142.905563 
	C90.734444,143.665894 82.976135,144.400940 75.035416,145.153259 
	C78.120178,156.370636 82.718170,166.485809 91.602844,175.067474 
M106.999847,155.584991 
	C106.999847,163.210068 106.999847,170.835129 106.999847,179.355347 
	C109.698540,177.468079 112.015907,176.086914 114.057922,174.376907 
	C121.795692,167.897232 125.378883,158.829254 128.935745,149.804794 
	C129.428726,148.554016 128.996887,146.938721 128.993179,145.492188 
	C127.277939,145.550476 124.890663,144.899658 123.957939,145.783615 
	C118.439201,151.013885 112.848579,149.513931 106.999847,146.574936 
	C106.999847,149.296814 106.999847,151.957504 106.999847,155.584991 
M76.512131,31.980682 
	C77.532707,30.058355 78.553276,28.136028 79.860168,25.674398 
	C65.984581,29.414225 54.987850,36.694530 45.129566,47.579620 
	C51.340519,49.901432 56.800453,51.967270 62.280079,53.979488 
	C64.684746,54.862526 66.099731,55.378689 67.303535,51.633167 
	C69.430435,45.015526 73.010147,38.864815 76.512131,31.980682 
M43.982235,102.459412 
	C45.585251,102.532288 47.206982,102.744370 48.771927,102.534019 
	C49.018078,102.500931 49.476151,100.198074 49.004169,99.575577 
	C48.306618,98.655563 46.103661,97.580620 45.868244,97.828995 
	C44.799488,98.956558 44.195866,100.525009 43.982235,102.459412 
z"/>
<path fill="#000000" opacity="1.000000" stroke="none" 
	d="
M84.417740,15.025831 
	C78.963020,17.166500 72.827461,18.824333 67.190056,21.522861 
	C60.574207,24.689754 53.723061,27.958021 48.149750,32.595402 
	C33.229549,45.010040 22.636271,60.530659 18.011314,79.695213 
	C17.857473,80.332680 17.870726,81.010468 17.428814,81.770523 
	C17.051535,59.761971 17.051535,37.652351 17.051535,15.003386 
	C39.482861,15.003386 61.720066,15.003386 84.417740,15.025831 
z"/>
<path fill="#F8F6F0" opacity="1.000000" stroke="none" 
	d="
M694.307373,189.961670 
	C690.403625,188.578979 686.955017,187.155121 683.450073,185.886642 
	C682.732483,185.626923 681.692383,185.713516 680.992310,186.044846 
	C678.012695,187.455109 675.010315,187.959137 673.329224,184.562531 
	C671.662842,181.195709 673.946838,179.122223 676.928528,177.770706 
	C665.359741,167.838501 662.234253,158.628983 666.936462,148.308090 
	C671.595703,138.081451 678.750305,135.143692 688.292175,136.116699 
	C699.363892,137.245712 704.466248,144.301956 705.789307,153.647400 
	C707.200012,163.611313 704.593811,172.896439 690.879089,178.556564 
	C694.265259,180.637970 697.165100,183.209381 701.108093,179.545975 
	C703.774780,177.068390 707.213379,177.279114 709.354248,180.040039 
	C711.798584,183.192429 708.648010,185.361481 706.492859,186.778702 
	C704.442444,188.127045 701.712952,188.442825 699.189087,189.587677 
	C697.644897,189.966995 696.193787,189.971237 694.307373,189.961670 
M692.965393,148.430725 
	C692.097107,147.619934 691.359192,146.538345 690.337463,146.046158 
	C686.327942,144.114822 682.274963,144.521866 679.101746,147.505371 
	C674.827515,151.524048 674.059204,156.456741 675.873413,162.217178 
	C677.358276,166.931946 680.771301,168.899323 684.823181,169.888687 
	C688.747681,170.846939 691.857361,168.411118 693.829224,165.324005 
	C697.253723,159.962540 697.267456,154.373489 692.965393,148.430725 
z"/>
<path fill="#F8F6F0" opacity="1.000000" stroke="none" 
	d="
M326.320587,189.967590 
	C324.585571,189.635513 323.289001,189.056305 321.989258,189.049072 
	C318.331543,189.028763 316.822571,186.433105 317.233765,183.748428 
	C317.653625,181.006836 320.205841,179.705215 323.329956,180.688187 
	C327.168854,181.896103 330.896301,182.118362 334.650940,178.389954 
	C331.316193,178.628387 328.719055,178.991623 326.126312,178.962845 
	C320.552612,178.900986 316.110229,174.473679 316.021973,168.915878 
	C315.926910,162.932159 316.157593,156.940079 315.941498,150.962662 
	C315.812073,147.382309 318.051300,146.071472 320.698700,146.172302 
	C322.992554,146.259689 325.293732,147.404022 325.070953,150.846970 
	C324.771027,155.482437 325.263855,160.171341 324.926636,164.801636 
	C324.638031,168.764343 326.237579,170.930389 329.976624,170.906754 
	C333.695343,170.883255 334.731750,167.729431 334.924713,164.749786 
	C335.214142,160.279587 335.071533,155.775284 334.974670,151.288467 
	C334.914185,148.487473 335.613312,146.196930 338.765076,146.055862 
	C341.993591,145.911362 344.029175,147.756485 343.957306,151.045715 
	C343.737915,161.090530 343.522675,171.142807 342.916290,181.168625 
	C342.622955,186.018936 338.156006,188.794632 331.236328,189.567261 
	C329.672058,189.959991 328.214844,189.970779 326.320587,189.967590 
z"/>
<path fill="#F8F6F0" opacity="1.000000" stroke="none" 
	d="
M780.961426,176.682114 
	C773.042847,177.411545 765.138794,177.756424 757.231445,177.874924 
	C756.505127,177.885788 755.130554,176.442062 755.141663,175.689758 
	C755.169983,173.765793 755.292419,171.503632 756.301941,169.996048 
	C759.591553,165.083710 763.294800,160.448303 767.369934,154.995697 
	C764.334045,154.995697 762.114929,155.018555 759.896484,154.990204 
	C756.748169,154.949997 754.819702,153.614944 755.006042,150.183395 
	C755.173279,147.104034 756.922546,145.934494 759.891357,145.976898 
	C765.385132,146.055359 770.884216,145.895142 776.373047,146.077515 
	C777.659668,146.120270 778.914062,147.133301 780.566040,147.785248 
	C780.957703,149.331375 780.966675,150.792191 780.608154,152.762634 
	C776.167603,158.645920 772.094482,164.019547 767.952454,169.484039 
	C772.887512,170.013474 776.919312,170.445984 780.951050,170.878510 
	C780.959045,172.664307 780.967102,174.450104 780.961426,176.682114 
z"/>
<path fill="#000000" opacity="1.000000" stroke="none" 
	d="
M780.973755,170.418900 
	C776.919312,170.445984 772.887512,170.013474 767.952454,169.484039 
	C772.094482,164.019547 776.167603,158.645920 780.594604,153.200760 
	C780.964478,158.739243 780.980469,164.349274 780.973755,170.418900 
z"/>
<path fill="#F8F6F0" opacity="1.000000" stroke="none" 
	d="
M363.783600,67.628021 
	C361.424316,70.663567 359.269318,73.366508 356.701111,76.587715 
	C358.906586,78.978836 361.343903,81.541771 363.688934,84.186539 
	C365.932159,86.716537 368.079468,89.331604 370.277008,91.918808 
	C366.555267,94.860252 361.219727,94.763550 357.963928,91.714493 
	C354.995758,88.934814 352.456085,85.673859 349.349945,83.076584 
	C348.035980,81.977890 345.672760,81.425301 343.927917,81.662987 
	C330.128632,83.542740 316.705261,79.773239 310.512878,65.602325 
	C304.511078,51.867470 306.337463,33.088963 321.523499,24.109280 
	C331.195190,18.390303 341.644318,17.989765 351.657043,23.053963 
	C361.538239,28.051611 367.268524,36.167633 367.018555,47.779091 
	C366.875366,54.431164 367.795593,61.222565 363.783600,67.628021 
M317.999939,48.739567 
	C318.333740,51.977165 318.403259,55.268490 319.048492,58.442783 
	C321.453827,70.275703 334.417511,75.450722 343.890778,72.071968 
	C354.670654,68.227211 359.641266,55.802437 356.999695,45.054558 
	C352.891083,28.337828 335.587189,24.174145 324.368500,33.836014 
	C319.968384,37.625538 319.170990,42.742580 317.999939,48.739567 
z"/>
<path fill="#F8F6F0" opacity="1.000000" stroke="none" 
	d="
M237.048965,54.999367 
	C234.243301,54.999397 231.928818,54.999397 228.999878,54.999397 
	C228.999878,58.089806 228.999908,61.019672 228.999908,63.949539 
	C228.999908,66.763840 228.999878,69.578133 228.999878,72.782051 
	C238.581284,72.782051 247.988052,72.782051 257.695190,72.782051 
	C257.695190,75.561653 257.695190,77.969543 257.695190,80.692261 
	C245.456940,80.692261 233.049469,80.692261 220.320129,80.692261 
	C220.320129,60.780945 220.320129,40.718109 220.320129,20.317123 
	C232.629181,20.317123 245.149475,20.317123 257.838623,20.317123 
	C257.838623,23.039917 257.838623,25.663118 257.838623,28.682774 
	C248.541046,28.682774 239.131836,28.682774 229.362106,28.682774 
	C229.362106,34.933861 229.362106,40.802814 229.362106,46.489258 
	C236.748322,46.489258 244.084457,46.489258 251.711990,46.489258 
	C251.711990,48.919437 251.711990,51.659351 251.711990,54.999336 
	C247.067337,54.999336 242.303741,54.999336 237.048965,54.999367 
z"/>
<path fill="#F8F6F0" opacity="1.000000" stroke="none" 
	d="
M286.202393,45.990120 
	C292.329193,48.061775 298.750793,49.344311 300.938507,56.154709 
	C303.711212,64.786263 301.663208,72.821770 294.763580,78.291656 
	C289.319824,82.607346 282.012787,83.332817 275.152649,81.505051 
	C271.562317,80.548477 268.417694,78.022987 264.944092,76.496704 
	C261.013641,74.769707 261.692017,72.970230 263.490570,69.656746 
	C265.664154,65.652351 267.842346,66.938087 270.048950,68.649612 
	C273.923981,71.655212 278.014832,73.386963 283.017822,73.044800 
	C287.462982,72.740799 290.650513,70.396606 291.832642,66.520653 
	C293.042572,62.553513 292.079254,58.734371 287.326813,57.002003 
	C283.308563,55.537270 279.498657,53.447384 275.421844,52.209454 
	C269.082336,50.284454 264.186676,46.000305 264.847260,37.381126 
	C265.534149,28.418798 270.675903,21.135017 278.628510,20.001503 
	C287.202820,18.779371 293.610382,20.671976 301.207916,26.834610 
	C300.405975,28.114601 299.470032,29.392502 298.761353,30.785969 
	C297.421600,33.420403 296.013245,33.350826 293.386688,32.057751 
	C288.873444,29.835800 284.590454,25.753296 278.694550,29.580645 
	C275.597687,31.590986 273.312500,33.957546 274.217224,37.343369 
	C274.796173,39.510071 277.259064,41.410229 279.274811,42.887611 
	C281.180634,44.284454 283.605560,44.973049 286.202393,45.990120 
z"/>
<path fill="#F8F6F0" opacity="1.000000" stroke="none" 
	d="
M510.998383,156.000214 
	C510.998352,162.147263 510.747131,167.809555 511.083435,173.436737 
	C511.325623,177.489822 509.457977,178.621521 506.083191,177.934143 
	C503.203857,177.347672 500.930786,177.123138 497.943695,178.747543 
	C493.869354,180.963196 484.524414,177.542099 482.163391,173.367325 
	C477.889496,165.810196 477.568359,156.166840 484.251434,149.321503 
	C488.308533,145.165894 493.496643,145.123749 498.800385,146.372421 
	C499.722717,146.589569 500.636475,146.843079 502.000641,147.194946 
	C502.000641,144.055969 502.119568,141.250488 501.970795,138.459305 
	C501.780823,134.895248 504.068878,134.995255 506.547455,134.969635 
	C509.111969,134.943130 511.148621,135.073303 511.044250,138.559967 
	C510.875305,144.202179 510.998718,149.853149 510.998383,156.000214 
M497.055298,154.021347 
	C492.843018,153.327133 490.369354,155.670090 488.534668,158.995377 
	C486.686798,162.344604 489.268799,168.937683 492.958954,170.467392 
	C496.145782,171.788452 500.656647,169.459763 501.714813,165.562729 
	C502.939758,161.051376 501.555176,157.193008 497.055298,154.021347 
z"/>
<path fill="#F8F6F0" opacity="1.000000" stroke="none" 
	d="
M365.000244,146.373642 
	C365.934418,140.859863 370.291443,136.899765 376.385864,136.063843 
	C382.222656,135.263290 387.842438,136.365051 392.385040,140.202209 
	C393.637360,141.260040 394.193176,144.185654 393.715332,145.870422 
	C393.412415,146.938370 390.574310,147.908829 388.935852,147.816055 
	C386.973022,147.704895 385.117157,146.283340 383.138977,145.677536 
	C381.621216,145.212738 379.959167,144.823441 378.408813,144.956070 
	C376.239594,145.141663 373.159332,145.469070 374.210571,148.622787 
	C374.806580,150.410690 377.104370,152.030914 379.012451,152.888260 
	C381.881439,154.177338 385.193939,154.454330 388.118378,155.649719 
	C396.767212,159.184952 397.943420,170.389404 390.378662,176.081055 
	C384.592926,180.434189 370.728638,180.038651 365.818115,174.818100 
	C364.475677,173.390930 364.107483,169.833374 364.895050,167.909760 
	C365.993500,165.226837 368.359833,165.716125 371.044220,167.293503 
	C374.526184,169.339630 378.205017,173.097275 382.841583,169.545364 
	C384.094849,168.585266 384.937286,167.088882 385.968323,165.838654 
	C384.370941,164.559647 382.931427,162.943863 381.130280,162.099442 
	C379.440521,161.307251 377.327820,161.478607 375.471100,160.970612 
	C365.919495,158.357254 364.334473,155.990097 365.000244,146.373642 
z"/>
<path fill="#F8F6F0" opacity="1.000000" stroke="none" 
	d="
M221.001007,157.001144 
	C221.000580,151.680725 221.067764,146.858429 220.977341,142.039078 
	C220.910751,138.490952 222.506973,136.925964 226.047348,136.976776 
	C232.030853,137.062653 238.017197,137.054214 244.000977,136.977951 
	C247.220261,136.936920 248.929947,138.190353 249.029266,141.583176 
	C249.148209,145.645676 246.298264,144.968872 243.887070,144.989288 
	C239.427124,145.027054 234.966629,145.000107 230.254944,145.000107 
	C230.254944,147.679245 230.254944,150.079727 230.254944,152.388718 
	C235.405502,153.024261 240.563065,153.522980 245.640259,154.458115 
	C246.288727,154.577545 246.518158,156.972153 246.939636,158.313354 
	C244.221268,161.253235 244.221268,161.253235 230.271393,162.275970 
	C230.271393,164.644180 230.271393,167.046860 230.271393,170.000275 
	C234.637634,170.000275 239.072266,170.073746 243.503128,169.975861 
	C246.762024,169.903854 248.939484,170.731064 249.040359,174.559372 
	C249.146912,178.603561 246.394058,177.991669 243.949341,177.996246 
	C237.632126,178.008041 231.312103,177.889008 224.998871,178.047684 
	C221.939972,178.124573 220.867203,176.966766 220.954819,173.957291 
	C221.114426,168.475906 221.000702,162.986542 221.001007,157.001144 
z"/>
<path fill="#F8F6F0" opacity="1.000000" stroke="none" 
	d="
M282.998169,169.882065 
	C282.997833,177.656296 282.998505,177.487610 274.827881,177.454987 
	C271.876740,177.443192 268.926453,178.887039 265.967255,178.920914 
	C255.831543,179.036896 249.038284,168.698593 251.512497,158.723984 
	C253.491852,150.744278 257.552399,146.204025 265.810364,145.701630 
	C266.472443,145.661346 267.148010,145.937866 267.820465,145.957291 
	C271.201111,146.054886 274.176483,148.657227 278.106476,146.231461 
	C280.645233,144.664459 283.316833,146.259140 283.088837,150.455231 
	C282.746704,156.752472 282.998962,163.082016 282.998169,169.882065 
M259.999542,162.514465 
	C260.566437,168.792374 264.706177,172.288422 269.211243,170.293915 
	C273.085571,168.578644 275.518829,164.386292 273.769196,160.226089 
	C272.703339,157.691833 269.710999,154.629654 267.256958,154.309204 
	C262.801666,153.727478 260.643188,157.426529 259.999542,162.514465 
z"/>
<path fill="#F8F6F0" opacity="1.000000" stroke="none" 
	d="
M430.999817,178.474976 
	C421.735016,173.656418 418.034180,163.337875 422.026611,153.911301 
	C424.694000,147.613358 432.793640,144.299042 440.631195,146.261414 
	C441.868439,146.571198 443.222015,147.093536 444.396454,146.867233 
	C452.009766,145.400177 451.998871,145.341156 451.999512,152.665298 
	C452.000122,159.816589 452.132263,166.972549 451.880127,174.114944 
	C451.833466,175.436813 450.377594,177.674271 449.326385,177.829971 
	C444.513855,178.542755 439.615479,178.693054 434.744110,178.979568 
	C433.595703,179.047119 432.432281,178.859467 430.999817,178.474976 
M431.030975,156.802109 
	C430.689453,159.667908 429.938995,162.558105 430.108307,165.393402 
	C430.327515,169.064362 436.061493,172.203812 438.931274,170.601929 
	C443.449066,168.080139 444.837830,162.139496 442.038971,157.308472 
	C439.725220,153.314880 436.720459,152.967941 431.030975,156.802109 
z"/>
<path fill="#F8F6F0" opacity="1.000000" stroke="none" 
	d="
M710.000854,149.394211 
	C710.183838,144.787491 713.485291,145.728088 715.506287,146.213531 
	C716.909607,146.550659 718.731628,148.681885 718.859314,150.143280 
	C719.277344,154.926025 719.088196,159.771027 718.970886,164.588150 
	C718.889282,167.941025 719.970703,169.837448 723.673584,170.060547 
	C727.797913,170.309021 728.812439,167.784348 728.950806,164.613632 
	C729.146301,160.134567 729.075745,155.638931 728.974121,151.153656 
	C728.908936,148.275436 729.819275,146.421875 732.926270,145.980209 
	C736.598450,145.458191 737.869873,148.066513 737.869202,150.627014 
	C737.867493,157.508804 737.703186,164.449585 736.771362,171.252991 
	C736.054810,176.484741 728.700073,179.721558 721.062927,179.003052 
	C715.385193,178.468887 710.143188,173.516266 710.031494,168.302780 
	C709.899841,162.155945 710.000549,156.004135 710.000854,149.394211 
z"/>
<path fill="#F8F6F0" opacity="1.000000" stroke="none" 
	d="
M304.893677,156.168320 
	C301.908752,155.068130 299.289948,154.148941 296.671173,153.229752 
	C296.341125,153.957047 296.011047,154.684341 295.681000,155.411621 
	C298.130859,156.611618 300.524872,157.947708 303.043152,158.980972 
	C307.226471,160.697418 311.532990,161.785980 312.092194,167.665512 
	C313.028900,177.514343 304.412689,179.849625 296.225586,178.822952 
	C293.205688,178.444244 290.045807,176.716858 287.667999,174.740524 
	C286.509521,173.777603 287.001434,170.828979 286.746277,168.779236 
	C288.735413,168.592422 290.876556,167.851532 292.678894,168.345856 
	C295.534851,169.129181 298.101471,170.922546 300.927612,171.886734 
	C301.771698,172.174744 303.073517,171.121002 304.165619,170.681992 
	C304.247406,170.167282 304.329193,169.652573 304.411011,169.137863 
	C302.057373,168.088989 299.791565,166.708099 297.332520,166.057770 
	C291.552979,164.529236 286.007202,160.850632 287.984161,152.844971 
	C289.046295,148.543793 294.509766,144.785934 299.802063,145.441788 
	C302.927856,145.829147 306.256531,146.610977 308.881989,148.216293 
	C310.375641,149.129593 311.497314,152.163361 311.266907,154.057373 
	C310.837555,157.586761 308.067230,157.620712 304.893677,156.168320 
z"/>
<path fill="#F8F6F0" opacity="1.000000" stroke="none" 
	d="
M529.000244,155.105362 
	C529.370605,148.990479 534.636414,144.677826 540.863098,145.511658 
	C544.006836,145.932648 547.076843,147.205612 550.068420,148.378464 
	C553.270813,149.634003 554.382690,152.666214 552.193481,154.877731 
	C550.985962,156.097519 547.409241,155.365906 545.018005,154.904800 
	C542.799011,154.476868 540.736206,153.239212 538.270142,152.219849 
	C537.546448,157.975342 541.521484,158.132919 544.121338,158.875046 
	C552.417847,161.243317 554.065674,163.415894 552.998657,172.052246 
	C552.533875,175.813843 547.208740,179.459045 541.476501,178.839905 
	C537.468323,178.406982 533.349915,176.951828 529.842773,174.962448 
	C528.500610,174.201157 528.721924,170.683685 528.230713,168.422211 
	C530.427124,168.406311 532.728577,167.963470 534.795776,168.472366 
	C538.078857,169.280579 541.205566,170.724289 544.398376,171.899155 
	C544.787659,171.083694 545.177002,170.268234 545.566284,169.452774 
	C543.637634,168.306427 541.782715,167.001801 539.759399,166.058395 
	C537.747437,165.120270 535.452942,164.766724 533.484680,163.761002 
	C530.220459,162.093033 528.271118,159.486877 529.000244,155.105362 
z"/>
<path fill="#F8F6F0" opacity="1.000000" stroke="none" 
	d="
M623.071350,174.561996 
	C622.430969,172.046722 622.052612,169.851425 621.694092,167.770889 
	C628.090576,164.082275 632.764465,175.010666 640.058533,168.605774 
	C635.685913,166.867661 632.100037,165.370209 628.461060,164.015442 
	C624.589172,162.573990 621.455566,158.031982 622.004456,154.441910 
	C622.671814,150.076950 626.545654,146.140182 630.733032,146.050385 
	C635.174927,145.955139 639.871887,144.386230 643.785034,148.223587 
	C645.925720,150.322784 647.320801,152.927597 645.137329,154.949814 
	C643.970642,156.030273 640.375549,155.621246 638.574524,154.623856 
	C635.732666,153.050156 633.498657,151.771515 630.349792,155.411865 
	C634.469421,157.187393 638.087769,159.003067 641.879395,160.319824 
	C647.312744,162.206711 647.331665,166.624893 646.896606,170.930161 
	C646.510986,174.746429 643.662598,176.803284 640.081360,178.069138 
	C633.811218,180.285446 628.357300,178.876938 623.071350,174.561996 
z"/>
<path fill="#F8F6F0" opacity="1.000000" stroke="none" 
	d="
M609.066895,154.000626 
	C603.038391,155.124847 599.786377,159.565460 601.108765,164.301041 
	C602.440857,169.071320 607.438782,171.270477 613.018433,169.517929 
	C615.334961,168.790314 617.843140,166.762756 619.615112,170.211502 
	C620.820007,172.556671 621.162415,174.652634 618.209900,176.426834 
	C609.942810,181.394669 599.853333,179.647736 595.440125,172.804199 
	C589.658508,163.838745 591.613037,154.644379 598.802429,147.772858 
	C601.284363,145.400620 614.687439,144.812073 617.214600,147.225220 
	C618.712708,148.655792 619.998047,151.596832 619.576111,153.447647 
	C618.947510,156.205109 616.334106,156.589447 613.640381,155.069794 
	C612.436462,154.390594 610.880615,154.335342 609.066895,154.000626 
z"/>
<path fill="#F8F6F0" opacity="1.000000" stroke="none" 
	d="
M575.172363,171.044556 
	C576.607910,174.145859 576.223083,176.831146 572.902893,177.933472 
	C568.370300,179.438309 561.626343,177.373108 561.142944,174.131180 
	C560.229919,168.008118 560.023132,161.779755 558.583374,156.185272 
	C557.389465,154.277832 555.522827,152.462463 555.244507,150.429672 
	C555.067078,149.133224 557.241943,147.514725 559.018982,146.519775 
	C559.777222,142.985550 560.331665,139.692093 565.574097,139.923080 
	C570.843445,140.155228 568.209839,144.219070 569.334534,146.725449 
	C571.797485,147.917969 577.329651,145.061661 576.681580,150.592224 
	C576.428101,152.755234 572.525818,154.490677 569.483948,157.111343 
	C569.483948,160.423828 569.483948,165.436844 569.483948,170.032623 
	C571.624329,170.414536 573.195251,170.694839 575.172363,171.044556 
z"/>
<path fill="#F8F6F0" opacity="1.000000" stroke="none" 
	d="
M415.292419,177.315002 
	C413.799286,177.722473 412.665497,177.968552 411.528748,177.982986 
	C403.186768,178.088974 402.841370,175.627518 402.083344,168.540909 
	C401.627167,164.276260 401.999481,159.922989 401.999481,155.136810 
	C398.827423,155.265991 395.916199,154.502228 397.122070,150.639328 
	C397.682129,148.845322 399.547485,147.458755 401.311157,146.230606 
	C401.979736,143.388474 401.814209,139.990524 406.464325,139.990799 
	C411.018921,139.991058 411.377380,142.947159 410.889130,146.512985 
	C413.619965,147.762497 419.312927,145.377167 417.784424,151.357941 
	C417.281525,153.325714 414.263153,154.650574 412.394989,156.269424 
	C411.930695,155.902435 411.466370,155.535461 411.002075,155.168488 
	C411.002075,159.460220 410.873291,163.759644 411.129150,168.036072 
	C411.171692,168.747437 412.864380,169.400208 413.840576,170.005890 
	C415.201263,170.850174 417.534149,171.422501 417.763885,172.478317 
	C418.075470,173.910294 419.684875,177.156769 415.292419,177.315002 
z"/>
<path fill="#F8F6F0" opacity="1.000000" stroke="none" 
	d="
M461.011566,142.319641 
	C467.024231,138.152008 468.570160,139.031067 469.365723,146.597855 
	C471.742065,148.313339 477.208252,144.389084 476.977417,150.736801 
	C476.793091,155.805542 472.871918,154.897415 469.004059,155.056824 
	C469.004059,159.126312 468.761749,163.214279 469.167084,167.237000 
	C469.274200,168.300110 471.323425,169.242523 472.579651,170.094772 
	C473.964050,171.033951 476.560883,171.703415 476.651123,172.674271 
	C476.783569,174.099533 475.535065,176.342651 474.220642,177.096634 
	C467.611359,180.887817 461.030121,177.094376 461.003418,169.718231 
	C460.986603,165.070129 461.000305,160.421921 461.000305,155.773758 
	C460.570190,156.013275 460.140076,156.252792 459.709991,156.492294 
	C458.140808,154.229538 456.234558,152.095703 455.279419,149.598114 
	C455.082153,149.082291 458.426331,147.212128 461.002014,145.337494 
	C461.002014,145.344391 461.002014,144.051697 461.011566,142.319641 
z"/>
<path fill="#F8F6F0" opacity="1.000000" stroke="none" 
	d="
M581.807007,177.313782 
	C581.022522,176.350342 580.132751,175.709717 580.124084,175.057480 
	C580.012695,166.597656 579.441101,158.081711 580.221802,149.694992 
	C580.712524,144.422928 585.284363,146.284012 588.999451,147.313522 
	C588.999451,156.274979 589.084717,165.382660 588.967834,174.487747 
	C588.896606,180.037659 584.885681,177.631790 581.807007,177.313782 
z"/>
<path fill="#F8F6F0" opacity="1.000000" stroke="none" 
	d="
M515.998291,171.703751 
	C515.999207,164.913193 516.064026,158.593918 515.976318,152.276749 
	C515.926636,148.695435 517.174927,146.088013 521.020386,146.077698 
	C524.944031,146.067154 525.046326,149.099777 525.017761,152.085312 
	C524.957214,158.403122 525.000000,164.721924 525.000061,171.040329 
	C525.000183,178.308243 525.000000,178.308243 517.192139,177.691116 
	C516.804688,175.900986 516.401489,174.038437 515.998291,171.703751 
z"/>
<path fill="#F8F7F1" opacity="1.000000" stroke="none" 
	d="
M748.647766,177.983307 
	C743.998169,178.697571 742.739624,176.887238 742.913269,172.736237 
	C743.225220,165.281265 743.119995,157.801117 742.945374,150.337189 
	C742.870789,147.147751 743.871399,145.891907 747.180969,145.917908 
	C750.384216,145.943100 750.992859,147.383636 751.056946,150.199036 
	C751.225037,157.586945 751.889038,164.968781 751.872925,172.351990 
	C751.868835,174.226593 750.063232,176.097244 748.647766,177.983307 
z"/>
<path fill="#F8F6EE" opacity="1.000000" stroke="none" 
	d="
M584.969055,144.000671 
	C581.638428,144.251190 579.739624,143.592499 579.939636,140.023239 
	C580.097900,137.197067 580.882568,134.825134 583.977539,135.156784 
	C585.738770,135.345490 588.383606,136.817719 588.762146,138.217331 
	C589.379639,140.500092 590.236084,144.282104 584.969055,144.000671 
z"/>
<path fill="#F7F5EF" opacity="1.000000" stroke="none" 
	d="
M516.295959,142.627502 
	C516.039917,141.445145 515.848877,140.581299 516.030579,139.804733 
	C516.626343,137.259521 517.157654,134.576370 520.812683,135.002289 
	C524.437866,135.424728 525.192627,137.701721 525.040955,140.920654 
	C524.848083,145.011642 521.888489,143.918335 519.630615,143.942947 
	C518.601257,143.954147 517.564941,143.324799 516.295959,142.627502 
z"/>
<path fill="#F9F7F0" opacity="1.000000" stroke="none" 
	d="
M750.998901,139.941132 
	C751.345154,144.704681 748.096130,144.491150 745.728210,143.806671 
	C744.212158,143.368408 742.263550,141.139420 742.201660,139.643173 
	C742.073853,136.552536 744.343445,135.075729 747.553406,134.960175 
	C751.076660,134.833328 751.122925,137.031586 750.998901,139.941132 
z"/>
<path fill="#000000" opacity="1.000000" stroke="none" 
	d="
M143.290314,125.355736 
	C144.165558,118.482216 144.794418,111.993126 145.448425,105.244476 
	C157.009323,105.244476 168.723358,105.244476 181.086853,105.244476 
	C180.578949,121.212540 174.830887,135.113495 165.853088,147.716095 
	C157.571121,144.788284 149.505737,141.937027 141.352066,139.054550 
	C141.872742,134.956955 142.458328,130.348572 143.290314,125.355736 
z"/>
<path fill="#000000" opacity="1.000000" stroke="none" 
	d="
M175.881149,97.000778 
	C165.450668,97.000778 155.508545,97.000778 145.678757,97.000778 
	C144.409393,86.017426 143.167770,75.274147 141.941269,64.661644 
	C149.241211,62.064644 157.148987,59.177143 165.133896,56.521545 
	C165.964279,56.245377 167.617676,57.048210 168.271332,57.852531 
	C174.705765,65.770050 177.468292,75.345001 179.916534,84.969467 
	C180.860046,88.678604 180.879013,92.622917 181.381271,97.000778 
	C179.259354,97.000778 177.814423,97.000778 175.881149,97.000778 
z"/>
<path fill="#000000" opacity="1.000000" stroke="none" 
	d="
M63.124084,138.956345 
	C55.598869,141.412796 48.519226,143.885971 41.366272,146.124985 
	C40.363903,146.438736 38.443073,146.006439 37.891735,145.240082 
	C31.148859,135.867523 27.039637,125.356667 25.015800,114.020294 
	C24.511812,111.197250 24.206310,108.338776 23.740347,105.000610 
	C27.413095,105.000610 30.553598,104.803543 33.645569,105.104729 
	C34.766872,105.213959 36.080677,106.299553 36.780369,107.305641 
	C41.351860,113.878990 51.884640,114.001495 56.094810,106.742302 
	C56.568901,105.924873 57.854198,105.577927 58.763321,105.012810 
	C59.507946,106.296249 60.772770,107.528000 60.906319,108.872147 
	C61.457550,114.420135 61.571320,120.009979 62.030033,125.569252 
	C62.397594,130.023743 63.030945,134.456299 63.124084,138.956345 
z"/>
<path fill="#000000" opacity="1.000000" stroke="none" 
	d="
M42.712185,55.285305 
	C49.805222,58.262196 56.596401,60.994377 63.765224,63.878487 
	C63.223549,68.338066 62.559910,73.418266 62.003506,78.510178 
	C61.596119,82.238403 61.376343,85.987000 60.978184,89.716408 
	C60.809677,91.294724 60.499416,92.876343 60.059219,94.400322 
	C59.793793,95.319229 59.154629,96.130188 58.683407,96.989655 
	C57.937641,96.303482 57.020504,95.731834 56.473289,94.912979 
	C52.177818,88.485199 46.416615,87.925896 41.612629,90.280937 
	C39.081207,91.521912 37.223186,94.136543 34.336342,96.799492 
	C31.882740,96.799492 28.106558,96.799492 23.867439,96.799492 
	C24.873793,84.583801 27.784636,73.224014 33.785023,62.743172 
	C35.063011,60.510910 37.006226,58.568901 37.865608,56.209969 
	C39.000046,53.096035 40.671246,54.488777 42.712185,55.285305 
z"/>
<path fill="#000000" opacity="1.000000" stroke="none" 
	d="
M69.240524,118.521347 
	C69.033623,113.954300 69.033623,109.804260 69.033623,105.327087 
	C78.859528,105.327087 88.591850,105.327087 98.663544,105.327087 
	C98.663544,114.843735 98.663544,124.572647 98.663544,134.658173 
	C90.185646,135.465622 81.464287,136.296234 72.366760,137.162689 
	C71.374329,130.967300 70.410881,124.952835 69.240524,118.521347 
z"/>
<path fill="#000000" opacity="1.000000" stroke="none" 
	d="
M85.991814,97.001129 
	C80.192436,97.001114 74.891556,97.001114 68.318626,97.001114 
	C69.506920,86.238197 70.657570,75.816170 71.834663,65.154686 
	C81.116737,66.195671 89.913986,67.182281 99.918655,68.304298 
	C98.637299,70.254494 98.004959,71.983635 96.774712,72.957367 
	C91.278160,77.307831 90.840698,84.316544 96.089180,89.726044 
	C97.736191,91.423592 98.709969,93.774323 100.726074,97.001152 
	C94.733551,97.001152 90.611931,97.001152 85.991814,97.001129 
z"/>
<path fill="#000000" opacity="1.000000" stroke="none" 
	d="
M136.961487,106.132553 
	C135.764053,117.021042 134.533951,127.438194 133.412094,136.938599 
	C127.711090,138.135071 125.236160,135.492035 122.809128,131.564880 
	C120.388466,127.648056 113.252129,128.028061 107.199409,131.529037 
	C107.199409,122.795799 107.199409,114.097839 107.199409,105.661209 
	C117.245209,105.661209 127.087021,105.661209 136.961487,106.132553 
z"/>
<path fill="#000000" opacity="1.000000" stroke="none" 
	d="
M136.000885,84.890030 
	C136.447617,89.042458 136.894180,92.732964 137.379944,96.747276 
	C126.999939,96.747276 117.260536,96.747276 107.177963,96.747276 
	C106.921745,93.720642 106.484909,91.295937 110.114998,89.098808 
	C114.698418,86.324669 113.835106,76.757751 109.429581,73.058434 
	C108.168266,71.999313 107.354515,70.407181 105.924438,68.515694 
	C114.568687,67.591225 122.007698,66.792862 129.447449,66.001389 
	C132.386826,65.688690 133.971054,66.419594 134.118057,69.970337 
	C134.318283,74.807281 135.334442,79.610458 136.000885,84.890030 
z"/>
<path fill="#000000" opacity="1.000000" stroke="none" 
	d="
M99.000336,50.919655 
	C99.000343,54.050056 99.000343,56.692848 99.000343,59.654640 
	C90.826508,58.835217 82.902962,58.040882 74.344032,57.182850 
	C79.593445,42.994141 84.374596,29.772661 99.000336,22.156462 
	C99.000336,32.280735 99.000336,41.356392 99.000336,50.919655 
z"/>
<path fill="#000000" opacity="1.000000" stroke="none" 
	d="
M106.999825,41.999756 
	C106.999825,35.412220 106.999825,29.324188 106.999825,23.174875 
	C116.297058,24.687742 126.757675,40.942623 130.825668,57.887505 
	C123.030090,58.583862 115.267754,59.277252 106.999825,60.015804 
	C106.999825,54.048046 106.999825,48.273655 106.999825,41.999756 
z"/>
<path fill="#000000" opacity="1.000000" stroke="none" 
	d="
M91.327301,174.824402 
	C82.718170,166.485809 78.120178,156.370636 75.035416,145.153259 
	C82.976135,144.400940 90.734444,143.665894 98.759735,142.905563 
	C98.759735,154.975449 98.759735,166.720627 98.759735,178.866837 
	C96.342491,177.583603 93.972664,176.325546 91.327301,174.824402 
z"/>
<path fill="#000000" opacity="1.000000" stroke="none" 
	d="
M126.072670,25.917458 
	C134.350372,30.077625 142.833786,33.885010 150.821426,38.542625 
	C154.990143,40.973423 158.286194,44.900806 162.756805,48.839844 
	C154.530838,51.560699 147.176163,53.993366 141.075516,56.011242 
	C135.706223,45.943726 130.682861,36.524803 125.658417,26.683561 
	C125.795784,26.146646 125.934227,26.032053 126.072670,25.917458 
z"/>
<path fill="#000000" opacity="1.000000" stroke="none" 
	d="
M106.999847,155.101593 
	C106.999847,151.957504 106.999847,149.296814 106.999847,146.574936 
	C112.848579,149.513931 118.439201,151.013885 123.957939,145.783615 
	C124.890663,144.899658 127.277939,145.550476 128.993179,145.492188 
	C128.996887,146.938721 129.428726,148.554016 128.935745,149.804794 
	C125.378883,158.829254 121.795692,167.897232 114.057922,174.376907 
	C112.015907,176.086914 109.698540,177.468079 106.999847,179.355347 
	C106.999847,170.835129 106.999847,163.210068 106.999847,155.101593 
z"/>
<path fill="#000000" opacity="1.000000" stroke="none" 
	d="
M76.246941,32.249672 
	C73.010147,38.864815 69.430435,45.015526 67.303535,51.633167 
	C66.099731,55.378689 64.684746,54.862526 62.280079,53.979488 
	C56.800453,51.967270 51.340519,49.901432 45.129566,47.579620 
	C54.987850,36.694530 65.984581,29.414225 79.860168,25.674398 
	C78.553276,28.136028 77.532707,30.058355 76.246941,32.249672 
z"/>
<path fill="#000000" opacity="1.000000" stroke="none" 
	d="
M78.929779,175.079956 
	C68.877945,172.695175 60.347988,167.452591 52.503906,160.949295 
	C50.005001,158.877518 47.598717,156.694031 44.353214,153.867752 
	C51.968590,151.316025 58.989159,148.963593 65.182800,146.888260 
	C70.083694,156.243759 74.706436,165.068268 79.336182,174.314911 
	C79.205383,174.851318 79.067581,174.965637 78.929779,175.079956 
z"/>
<path fill="#000000" opacity="1.000000" stroke="none" 
	d="
M126.229729,174.413696 
	C130.568100,165.901962 134.906479,157.390228 139.865051,147.661713 
	C145.470413,149.508469 152.313766,151.763107 159.994064,154.293472 
	C150.604736,164.631790 140.161514,171.245377 127.262192,174.866043 
	C126.521011,174.622742 126.375366,174.518219 126.229729,174.413696 
z"/>
<path fill="#000000" opacity="1.000000" stroke="none" 
	d="
M43.703552,102.197113 
	C44.195866,100.525009 44.799488,98.956558 45.868244,97.828995 
	C46.103661,97.580620 48.306618,98.655563 49.004169,99.575577 
	C49.476151,100.198074 49.018078,102.500931 48.771927,102.534019 
	C47.206982,102.744370 45.585251,102.532288 43.703552,102.197113 
z"/>
<path fill="#000000" opacity="1.000000" stroke="none" 
	d="
M79.565811,174.586792 
	C80.105286,174.876251 80.422127,175.315918 80.738968,175.755600 
	C80.200722,175.716980 79.662468,175.678375 79.027000,175.359863 
	C79.067581,174.965637 79.205383,174.851318 79.565811,174.586792 
z"/>
<path fill="#000000" opacity="1.000000" stroke="none" 
	d="
M126.870026,174.903168 
	C126.510178,175.320572 125.946960,175.562057 125.383743,175.803543 
	C125.517662,175.467850 125.651581,175.132141 126.007614,174.605072 
	C126.375366,174.518219 126.521011,174.622742 126.870026,174.903168 
z"/>
<path fill="#000000" opacity="1.000000" stroke="none" 
	d="
M125.433746,26.411825 
	C124.893509,26.122185 124.576859,25.681961 124.260216,25.241735 
	C124.799156,25.280355 125.338097,25.318974 125.974854,25.637524 
	C125.934227,26.032053 125.795784,26.146646 125.433746,26.411825 
z"/>
<path fill="#000000" opacity="1.000000" stroke="none" 
	d="
M693.242310,148.716339 
	C697.267456,154.373489 697.253723,159.962540 693.829224,165.324005 
	C691.857361,168.411118 688.747681,170.846939 684.823181,169.888687 
	C680.771301,168.899323 677.358276,166.931946 675.873413,162.217178 
	C674.059204,156.456741 674.827515,151.524048 679.101746,147.505371 
	C682.274963,144.521866 686.327942,144.114822 690.337463,146.046158 
	C691.359192,146.538345 692.097107,147.619934 693.242310,148.716339 
z"/>
<path fill="#000000" opacity="1.000000" stroke="none" 
	d="
M318.001007,48.288746 
	C319.170990,42.742580 319.968384,37.625538 324.368500,33.836014 
	C335.587189,24.174145 352.891083,28.337828 356.999695,45.054558 
	C359.641266,55.802437 354.670654,68.227211 343.890778,72.071968 
	C334.417511,75.450722 321.453827,70.275703 319.048492,58.442783 
	C318.403259,55.268490 318.333740,51.977165 318.001007,48.288746 
z"/>
<path fill="#000000" opacity="1.000000" stroke="none" 
	d="
M497.432739,154.148193 
	C501.555176,157.193008 502.939758,161.051376 501.714813,165.562729 
	C500.656647,169.459763 496.145782,171.788452 492.958954,170.467392 
	C489.268799,168.937683 486.686798,162.344604 488.534668,158.995377 
	C490.369354,155.670090 492.843018,153.327133 497.432739,154.148193 
z"/>
<path fill="#000000" opacity="1.000000" stroke="none" 
	d="
M259.999573,162.100830 
	C260.643188,157.426529 262.801666,153.727478 267.256958,154.309204 
	C269.710999,154.629654 272.703339,157.691833 273.769196,160.226089 
	C275.518829,164.386292 273.085571,168.578644 269.211243,170.293915 
	C264.706177,172.288422 260.566437,168.792374 259.999573,162.100830 
z"/>
<path fill="#000000" opacity="1.000000" stroke="none" 
	d="
M431.246765,156.444733 
	C436.720459,152.967941 439.725220,153.314880 442.038971,157.308472 
	C444.837830,162.139496 443.449066,168.080139 438.931274,170.601929 
	C436.061493,172.203812 430.327515,169.064362 430.108307,165.393402 
	C429.938995,162.558105 430.689453,159.667908 431.246765,156.444733 
z"/>
</svg>